<svg id="Warstwa_1" data-name="Warstwa 1" xmlns="http://www.w3.org/2000/svg" viewBox="0 0 240.39 367.86"><defs><style>.cls-1{fill:#1d1d1b;}</style></defs><path class="cls-1" d="M294.45,584.05V529.5a.52.52,0,0,0-.51-.52h-5.35a42,42,0,0,0-42,42v60.66a.54.54,0,0,0,0,.22Z" transform="translate(-166.01 -264.01)"/><rect class="cls-1" x="80.57" width="47.87" height="47.87" rx="23.94"/><path class="cls-1" d="M314.27,328.81H166l28.9,47.87H314.27a44.27,44.27,0,0,1,0,88.53H294.45V394.13a.51.51,0,0,0-.51-.52h-5.35a42,42,0,0,0-42,42v29.59H194.91L166,513.08H314.27a92.14,92.14,0,0,0,0-184.27Z" transform="translate(-166.01 -264.01)"/></svg>